PathFileType	4	(X/Y/Z)	D:\Share\Shared_Data\Ergonomics\Sit To Stand Pertubation\S1\S1 Cal 01.trc
DataRate	CameraRate	NumFrames	NumMarkers	Units	OrigDataRate	OrigDataStartFrame	OrigNumFrames	
100	100	15	21	mm	100	1	237
Frame#	Time	R_ASIS			R_Pelvis			V_Sacral			L_Pelvis			L_ASIS			Clavical			R_Acromium			L_Acromium			Sternum			Torso			R_Thigh_Med			R_Thigh_Lat			R_Thigh			R_Shank_Med			R_Shank_Lat			R_Shank			R_Heel			R_Toe			RAJC			RHJC			RKJC			
		X1	Y1	Z1	X2	Y2	Z2	X3	Y3	Z3	X4	Y4	Z4	X5	Y5	Z5	X6	Y6	Z6	X7	Y7	Z7	X8	Y8	Z8	X9	Y9	Z9	X10	Y10	Z10	X11	Y11	Z11	X12	Y12	Z12	X13	Y13	Z13	X14	Y14	Z14	X15	Y15	Z15	X16	Y16	Z16	X17	Y17	Z17	X18	Y18	Z18	X19	Y19	Z19	X20	Y20	Z20	X21	Y21	Z21	

1	0	441.27261	912.47278	64.368027	374.61694	912.21405	90.458336	296.75519	908.30994	-66.865219	414.95065	900.67346	-196.78688	493.17673	899.07672	-134.38281	457.98056	1254.012	-44.759686	368.78207	1317.536	96.386719	407.19235	1323.6355	-184.52065	428.4863	1263.4905	54.44989	461.83813	1259.9613	-106.04649	332.86349	418.85156	2.5198662	357.9743	442.1463	128.54233	445.54599	599.4754	73.473114	330.41083	96.024979	51.003124	309.09055	96.533539	129.56769	322.31674	308.86313	148.72057	263.40994	39.520077	76.117767	469.49045	50.06461	91.499985	319.75069	96.279259	90.285407	396.5144879	838.6872608	28.96799552	345.418895	430.49893	65.5310981
2	0.01	441.45331	912.46124	64.395111	377.66965	912.58081	90.503624	296.95102	908.29828	-66.866508	415.15948	900.63324	-196.79175	493.36191	899.03613	-134.36032	457.98413	1253.9784	-44.752037	368.67615	1317.4839	96.32019	407.40536	1323.6653	-184.34404	428.39096	1263.4274	54.414482	461.88812	1259.9641	-106.03609	332.92343	418.83432	2.5173879	358.01065	442.14331	128.5537	445.64099	599.43622	73.492249	330.40689	96.004608	50.980038	309.08676	96.533287	129.55447	322.33762	308.85999	148.71861	263.41074	39.528301	76.127022	469.49472	50.05835	91.507545	319.746825	96.2689475	90.267254	396.6894468	838.6745367	29.00190167	345.46704	430.488815	65.53554395
3	0.02	441.63632	912.43158	64.436752	377.81464	912.54156	90.53138	297.15833	908.29688	-66.867241	415.42926	900.61096	-196.774	493.57675	899.01581	-134.32555	457.97314	1253.9397	-44.759132	368.56015	1317.4554	96.194916	407.56284	1323.7283	-184.2502	428.29102	1263.3673	54.373127	461.94147	1259.9963	-106.02172	332.99039	418.86148	2.5330849	358.05841	442.14847	128.53238	445.10999	599.38068	73.439529	330.44788	96.027939	50.981258	309.10364	96.536865	129.53957	322.36182	308.86282	148.692	263.4183	39.557415	76.10183	469.48462	50.050095	91.488525	319.77576	96.282402	90.260414	396.8690337	838.6492405	29.02850856	345.5244	430.504975	65.53273245
4	0.03	441.81024	912.42969	64.48291	377.91577	912.51813	90.574997	297.36362	908.31586	-66.908646	415.70392	900.58429	-196.73854	493.81311	898.98828	-134.27319	457.94504	1253.9094	-44.748989	368.40518	1317.4474	96.074837	407.65149	1323.8082	-184.00656	428.18112	1263.3193	54.33585	462.42416	1260.0837	-105.7702	333.07877	418.89731	2.5248015	358.09024	442.15985	128.53639	445.93356	599.41638	73.559425	330.4704	96.058395	50.990356	309.1069	96.562683	129.53302	322.37271	308.88086	148.68143	263.42685	39.568516	76.133652	469.50024	50.05304	91.49604	319.78865	96.310539	90.261688	397.0341724	838.6513853	29.06283448	345.584505	430.52858	65.53059575
5	0.04	441.99124	912.43103	64.540291	375.2355	912.18958	90.476326	297.62994	908.30737	-66.95533	415.99887	900.55658	-196.722	494.08615	898.95764	-134.20059	457.88882	1253.8596	-44.72966	368.25427	1317.4362	95.941849	407.7973	1323.8667	-183.93883	428.04529	1263.277	54.314697	462.48547	1260.1157	-105.72576	333.17715	418.90826	2.4970109	358.13693	442.17615	128.54689	446.04828	599.3949	73.580231	330.4892	96.066498	50.965939	309.10022	96.599335	129.51833	322.36978	308.88312	148.63515	263.45151	39.550545	76.049599	469.48303	50.045307	91.496185	319.79471	96.3329165	90.2421345	397.230065	838.6479986	29.1094973	345.65704	430.542205	65.52195045
6	0.05	442.14438	912.43018	64.598442	377.73862	912.4967	90.528084	297.89557	908.29144	-67.0205	417.39362	901.18646	-194.06679	494.37741	898.93549	-134.11632	457.8085	1253.7845	-44.690849	368.03101	1317.4309	95.810936	407.90219	1324.2292	-183.57806	427.90176	1263.2444	54.298374	462.25397	1260.4559	-105.20423	333.29858	418.90744	2.4989302	358.19141	442.19614	128.54483	446.16232	599.38214	73.634003	330.52127	96.07415	50.962494	309.07901	96.611969	129.50775	322.39108	308.89828	148.60005	263.46661	39.550049	76.00032	469.49411	50.056221	91.495941	319.80014	96.3430595	90.235122	397.4114887	838.6401775	29.14416863	345.744995	430.55179	65.5218801
7	0.06	442.29272	912.44501	64.656357	377.76953	912.47369	90.43029	298.14868	908.32391	-67.065964	416.4726	900.31354	-197.93767	494.65085	898.93958	-134.03467	457.70224	1253.6881	-44.640709	367.79419	1317.4331	95.643311	408.07959	1324.2839	-183.50204	427.74588	1263.2067	54.283287	462.33823	1260.4978	-105.14175	333.42456	418.94095	2.5095396	358.24911	442.21039	128.50349	446.30087	599.39618	73.681488	330.55286	96.103195	50.949627	309.09036	96.640862	129.48264	322.40768	308.91043	148.56903	263.47659	39.559937	75.996689	469.51306	50.042297	91.472412	319.82161	96.3720285	90.2161335	397.5763448	838.657963	29.17480257	345.836835	430.57567	65.5065148
8	0.07	442.43488	912.45679	64.722107	377.84879	912.45508	90.392876	298.3898	908.34076	-67.140106	418.26398	900.62732	-192.88014	494.93787	898.94598	-133.93979	457.56332	1253.5792	-44.581924	367.53207	1317.4658	95.495628	408.27441	1324.3545	-183.39433	427.52646	1263.1676	54.308136	462.4498	1260.5238	-105.04795	333.5491	418.97113	2.4952672	358.34317	442.2345	128.49709	446.46158	599.40619	73.729492	330.60538	96.144089	50.969028	309.08676	96.66391	129.47482	322.44437	308.91351	148.52774	263.49841	39.561913	75.977921	469.51208	50.064129	91.476112	319.84607	96.4039995	90.221924	397.7393979	838.6692481	29.20741471	345.946135	430.602815	65.4961786
9	0.08	442.59161	912.46704	64.798592	377.71878	912.46088	90.44796	298.62775	908.31256	-67.19426	417.20578	900.24744	-197.62437	495.26074	898.91583	-133.81955	457.45959	1253.5042	-44.504208	367.27374	1317.5071	95.362999	408.46262	1324.4214	-183.222	427.15421	1263.072	54.321945	462.57822	1260.5883	-104.94279	333.70883	418.97046	2.4726043	358.41644	442.24118	128.50172	446.61194	599.42297	73.773422	330.61218	96.133156	50.936108	309.08615	96.680382	129.46277	322.4964	308.92776	148.5137	263.49686	39.569824	75.894035	469.51791	50.055698	91.471954	319.849165	96.406769	90.199439	397.9234947	838.667935	29.26083638	346.062635	430.60582	65.48716215
10	0.09	442.74097	912.46344	64.868286	377.68332	912.41272	90.489326	298.85828	908.27209	-67.246277	418.94418	900.56726	-192.989	495.66476	898.97284	-133.57472	457.36731	1253.4266	-44.419716	366.99673	1317.5786	95.234108	408.67264	1324.4552	-183.11879	426.89484	1263.0681	54.347359	462.66437	1260.6575	-104.83309	333.86139	418.98267	2.4845235	358.50595	442.2518	128.50516	446.76852	599.39197	73.837944	330.65012	96.156105	50.928619	309.09949	96.706429	129.4617	322.5379	308.92413	148.48349	263.52332	39.590652	75.83567	469.52695	50.052746	91.476974	319.874805	96.431267	90.1951595	398.1320864	838.6833252	29.26779362	346.18367	430.617235	65.49484175
11	0.1	442.87485	912.45575	64.95388	375.97525	912.20953	90.551445	299.13388	908.26007	-67.282425	419.30688	900.62848	-192.87476	495.9473	899.11316	-133.21449	457.25391	1253.3802	-44.335403	366.66815	1317.6613	95.103668	408.88922	1324.2623	-183.15826	426.73114	1263.144	54.367092	462.92282	1260.5088	-104.98296	334.03601	419.00919	2.5334547	358.58789	442.27521	128.51886	446.88416	599.38629	73.926949	330.70929	96.188774	50.948273	309.09894	96.717239	129.45357	322.57816	308.91962	148.45273	263.54196	39.621155	75.78952	469.54953	50.05563	91.486671	319.904115	96.4530065	90.2009215	398.3368326	838.7442519	29.30447176	346.31195	430.6422	65.52615735
12	0.11	442.98575	912.45294	65.014191	376.0611	912.19824	90.562119	299.07623	908.21759	-67.485466	418.49429	900.20557	-196.73169	496.61771	899.11786	-132.9595	457.14792	1253.3568	-44.262093	366.33658	1317.7404	94.930923	409.05042	1324.2046	-183.0751	426.45224	1263.1759	54.385139	462.96475	1260.5663	-104.85396	334.15683	419.03577	2.5331924	358.64191	442.28168	128.49797	447.06647	599.39105	74.006569	330.71475	96.204826	50.906113	309.11987	96.751213	129.42606	322.60742	308.94336	148.44313	263.55087	39.628345	75.804214	469.55679	50.059814	91.483269	319.91731	96.4780195	90.1660865	398.4575176	838.7368325	29.21756809	346.39937	430.658725	65.5155812
13	0.12	443.09106	912.45239	65.088142	376.18149	912.19043	90.615074	299.65134	908.14453	-67.396156	418.87631	900.15796	-196.73959	496.90201	899.07788	-132.85938	457.07004	1253.3625	-44.146236	365.99384	1317.8324	94.798584	409.21039	1324.156	-182.98393	426.1915	1263.1992	54.401524	462.89529	1260.6545	-104.65215	334.27029	419.02612	2.5479128	358.69534	442.28867	128.53841	447.19449	599.3833	74.07505	330.73917	96.206146	50.893955	309.10538	96.753372	129.41855	322.64404	308.95822	148.43993	263.5679	39.614582	75.761841	469.53098	50.033878	91.462929	319.922275	96.479759	90.1562525	398.6999652	838.7071778	29.29282114	346.482815	430.657395	65.5431614
14	0.13	443.21667	912.4563	65.173256	376.28262	912.18555	90.649124	299.63672	908.15717	-67.567657	419.27118	900.15607	-196.44565	497.26013	899.18011	-132.48975	457.0181	1253.3779	-44.044304	365.63657	1317.9086	94.592407	409.35474	1324.1376	-182.94595	425.92841	1263.2491	54.471012	462.9744	1260.6788	-104.48361	334.38599	419.05643	2.5416951	358.76746	442.31955	128.58263	447.26208	599.37347	74.171906	330.77249	96.235046	50.911221	309.10919	96.765961	129.42105	322.6622	308.96149	148.42953	263.5759	39.623413	75.754478	469.53485	50.053188	91.463249	319.94084	96.5005035	90.1661355	398.8151827	838.7789953	29.29950314	346.576725	430.68799	65.56216255
15	0.14	443.2471	912.43616	65.207573	376.38168	912.17719	90.693199	299.9173	908.12549	-67.539047	419.53906	900.0918	-196.82043	497.79126	899.35828	-131.47585	456.95322	1253.3677	-43.941662	365.29462	1318.0002	94.457184	409.534	1324.0737	-182.92648	425.65207	1263.2939	54.542042	463.05109	1260.7103	-104.35358	334.46732	419.08408	2.5899785	358.80124	442.32089	128.62361	447.36273	599.35089	74.280403	330.78519	96.24234	50.901299	309.09995	96.773834	129.41953	322.66931	308.94495	148.42386	263.5722	39.625324	75.82325	469.55743	50.049561	91.469475	319.94257	96.508087	90.1604145	398.9811708	838.9968387	29.25048034	346.63428	430.702485	65.60679425
